<svg width="366" height="366" viewBox="0 0 366 366" fill="none" xmlns="http://www.w3.org/2000/svg">
<path d="M212.514 311.615C204.654 296.708 182.5 244.104 182.5 124.538V123.007L195.545 131.706C205.913 138.608 214.413 147.972 220.288 158.962C226.162 169.952 229.229 182.227 229.214 194.692H252.571C252.585 178.38 248.569 162.318 240.881 147.936C233.193 133.554 222.072 121.299 208.508 112.262L191.878 101.154H209.746C227.429 101.187 244.63 106.928 258.796 117.523L280.6 133.892L294.614 115.185L272.81 98.8154C254.593 85.1992 232.48 77.8195 209.746 77.7692H195.545C210.8 62.8567 231.251 54.4705 252.571 54.3846H275.929V31H252.571C236.882 31.0626 221.404 34.6254 207.263 41.4293C193.121 48.2332 180.672 58.1071 170.821 70.3329C160.97 58.1071 148.522 48.2332 134.38 41.4293C120.239 34.6254 104.761 31.0626 89.0714 31H65.7143V54.3846H89.0714C110.392 54.4705 130.843 62.8567 146.098 77.7692H131.897C109.163 77.8195 87.0497 85.1992 68.8325 98.8154L47.0286 115.185L61.0429 133.892L82.8468 117.523C97.0131 106.928 114.214 101.187 131.897 101.154H149.765L133.146 112.262C119.58 121.297 108.457 133.552 100.767 147.934C93.077 162.316 89.0592 178.379 89.0714 194.692H112.429C112.414 182.227 115.48 169.952 121.355 158.962C127.23 147.972 135.73 138.608 146.098 131.706L159.143 123.018V124.538C159.143 229.114 175.633 285.483 186.716 311.615H19V335H346V311.615H212.514Z" fill="#FFCE27"/>
</svg>
