<svg width="1200" height="1200" viewBox="0 0 1200 1200" fill="none" xmlns="http://www.w3.org/2000/svg">
<g clip-path="url(#clip0_115_62)">
<rect width="1200" height="1200" fill="#090909"/>
<g filter="url(#filter0_d_115_62)">
<circle cx="600" cy="573" r="180" fill="#FFCE27"/>
</g>
<g filter="url(#filter1_d_115_62)">
<circle cx="996" cy="576" r="180" fill="#3EC5FF"/>
</g>
<g filter="url(#filter2_d_115_62)">
<circle cx="205.5" cy="574.5" r="178.5" fill="#E612B9"/>
</g>
<path d="M143.72 688.5V617.74L221.44 569.02L143.72 520.3V451.86L286.4 548.72V591.06L143.72 688.5Z" fill="white"/>
<path d="M582.98 717.92V422.8H623.1V717.92H582.98Z" fill="white"/>
<path d="M985.82 624.74L978 561.84L975.62 474.8H1025.94L1023.56 560.82L1015.4 624.74H985.82ZM1002.14 691.72C995.113 691.72 989.107 689.453 984.12 684.92C979.36 680.387 976.98 674.947 976.98 668.6C976.98 662.253 979.36 656.813 984.12 652.28C989.107 647.747 995.113 645.48 1002.14 645.48C1009.17 645.48 1015.06 647.747 1019.82 652.28C1024.81 656.813 1027.3 662.253 1027.3 668.6C1027.3 674.947 1024.81 680.387 1019.82 684.92C1015.06 689.453 1009.17 691.72 1002.14 691.72Z" fill="white"/>
</g>
<defs>
<filter id="filter0_d_115_62" x="416" y="393" width="368" height="368" filterUnits="userSpaceOnUse" color-interpolation-filters="sRGB">
<feFlood flood-opacity="0" result="BackgroundImageFix"/>
<feColorMatrix in="SourceAlpha" type="matrix" values="0 0 0 0 0 0 0 0 0 0 0 0 0 0 0 0 0 0 127 0" result="hardAlpha"/>
<feOffset dy="4"/>
<feGaussianBlur stdDeviation="2"/>
<feComposite in2="hardAlpha" operator="out"/>
<feColorMatrix type="matrix" values="0 0 0 0 0 0 0 0 0 0 0 0 0 0 0 0 0 0 0.25 0"/>
<feBlend mode="normal" in2="BackgroundImageFix" result="effect1_dropShadow_115_62"/>
<feBlend mode="normal" in="SourceGraphic" in2="effect1_dropShadow_115_62" result="shape"/>
</filter>
<filter id="filter1_d_115_62" x="812" y="396" width="368" height="368" filterUnits="userSpaceOnUse" color-interpolation-filters="sRGB">
<feFlood flood-opacity="0" result="BackgroundImageFix"/>
<feColorMatrix in="SourceAlpha" type="matrix" values="0 0 0 0 0 0 0 0 0 0 0 0 0 0 0 0 0 0 127 0" result="hardAlpha"/>
<feOffset dy="4"/>
<feGaussianBlur stdDeviation="2"/>
<feComposite in2="hardAlpha" operator="out"/>
<feColorMatrix type="matrix" values="0 0 0 0 0 0 0 0 0 0 0 0 0 0 0 0 0 0 0.25 0"/>
<feBlend mode="normal" in2="BackgroundImageFix" result="effect1_dropShadow_115_62"/>
<feBlend mode="normal" in="SourceGraphic" in2="effect1_dropShadow_115_62" result="shape"/>
</filter>
<filter id="filter2_d_115_62" x="23" y="396" width="365" height="365" filterUnits="userSpaceOnUse" color-interpolation-filters="sRGB">
<feFlood flood-opacity="0" result="BackgroundImageFix"/>
<feColorMatrix in="SourceAlpha" type="matrix" values="0 0 0 0 0 0 0 0 0 0 0 0 0 0 0 0 0 0 127 0" result="hardAlpha"/>
<feOffset dy="4"/>
<feGaussianBlur stdDeviation="2"/>
<feComposite in2="hardAlpha" operator="out"/>
<feColorMatrix type="matrix" values="0 0 0 0 0 0 0 0 0 0 0 0 0 0 0 0 0 0 0.25 0"/>
<feBlend mode="normal" in2="BackgroundImageFix" result="effect1_dropShadow_115_62"/>
<feBlend mode="normal" in="SourceGraphic" in2="effect1_dropShadow_115_62" result="shape"/>
</filter>
<clipPath id="clip0_115_62">
<rect width="1200" height="1200" fill="white"/>
</clipPath>
</defs>
</svg>
